<?xml version="1.0" encoding="UTF-8" standalone="no"?>
<svg width="950px" height="136px" viewBox="0 0 950 136" version="1.1" xmlns="http://www.w3.org/2000/svg" xmlns:xlink="http://www.w3.org/1999/xlink">
    <!-- Generator: Sketch 47.1 (45422) - http://www.bohemiancoding.com/sketch -->
    <title>Group 7</title>
    <desc>Created with Sketch.</desc>
    <defs></defs>
    <g id="Page-1" stroke="none" stroke-width="1" fill="none" fill-rule="evenodd">
        <g id="Desktop" transform="translate(-36.000000, -587.000000)">
            <g id="Group-7" transform="translate(36.000000, 587.000000)">
                <polygon id="Rectangle" fill="#FFFFFF" points="0 61 950 76.3061224 950 136 0 136"></polygon>
                <ellipse id="Oval-2-Copy" fill="#FFFFFF" cx="125.5" cy="80.5" rx="66.5" ry="52.5"></ellipse>
                <ellipse id="Oval-2-Copy-4" fill="#FFFFFF" cx="333.5" cy="70.5" rx="66.5" ry="52.5"></ellipse>
                <ellipse id="Oval-2-Copy-2" fill="#FFFFFF" cx="201.5" cy="80.5" rx="66.5" ry="52.5"></ellipse>
                <ellipse id="Oval-2-Copy-3" fill="#EC751A" cx="270.5" cy="78.5" rx="66.5" ry="52.5"></ellipse>
                <ellipse id="Oval-2-Copy-3" fill="#EC751A" cx="270.5" cy="78.5" rx="66.5" ry="52.5"></ellipse>
                <ellipse id="Oval-2" fill="#EC751A" cx="68.5" cy="58.5" rx="66.5" ry="52.5"></ellipse>
                <ellipse id="Oval-2" fill="#FFFFFF" cx="66.5" cy="60.5" rx="66.5" ry="52.5"></ellipse>
                <ellipse id="Oval-2-Copy-3" fill="#FFFFFF" cx="268.5" cy="80.5" rx="66.5" ry="52.5"></ellipse>
                <ellipse id="Oval-2-Copy-5" fill="#FFFFFF" cx="419.5" cy="81.5" rx="66.5" ry="52.5"></ellipse>
                <ellipse id="Oval-2-Copy-10" fill="#FFFFFF" cx="883.5" cy="81.5" rx="66.5" ry="52.5"></ellipse>
                <ellipse id="Oval-2-Copy-6" fill="#EC751A" cx="492.5" cy="66" rx="83.5" ry="66"></ellipse>
                <ellipse id="Oval-2-Copy-9" fill="#EC751A" cx="787.5" cy="81.5" rx="66.5" ry="52.5"></ellipse>
                <ellipse id="Oval-2-Copy-9" fill="#FFFFFF" cx="784.5" cy="81.5" rx="66.5" ry="52.5"></ellipse>
                <ellipse id="Oval-2-Copy-6" fill="#FFFFFF" cx="493.5" cy="68" rx="83.5" ry="66"></ellipse>
                <ellipse id="Oval-2-Copy-8" fill="#EC751A" cx="692.5" cy="67" rx="83.5" ry="66"></ellipse>
                <ellipse id="Oval-2-Copy-8" fill="#FFFFFF" cx="690.5" cy="68" rx="83.5" ry="66"></ellipse>
                <ellipse id="Oval-2-Copy-7" fill="#EC751A" cx="604.5" cy="81.5" rx="66.5" ry="52.5"></ellipse>
                <ellipse id="Oval-2-Copy-7" fill="#FFFFFF" cx="606.5" cy="81.5" rx="66.5" ry="52.5"></ellipse>
            </g>
        </g>
    </g>
</svg>